<svg width="256" height="256" viewBox="0 0 256 256" fill="none" xmlns="http://www.w3.org/2000/svg">
<circle cx="128" cy="128" r="128" fill="#232323"/>
<path d="M255 143C248.5 200.5 205.833 234 186.5 242L120.75 170.5L55.5 99.5C64.7 83.9 92 79 104.5 78.5L255 143Z" fill="#515151"/>
<path d="M170 249L78 149L92 139L186.5 241.5C185.3 242.7 174.833 247.167 170 249Z" fill="#515151"/>
<path d="M153 253.5L76.5 172L90 165L134 202.5L170 248.5C168.4 250.5 157.833 252.833 153 253.5Z" fill="#515151"/>
<path d="M255 143L203 121V112L255.825 135.422C255.864 135.32 255.919 135.338 256 135.5L255.825 135.422C255.623 135.949 255.838 139.65 255 143Z" fill="#515151"/>
<path d="M77.9297 149.172C77.9766 145.797 78.1172 143.031 78.3516 140.875C78.5859 138.672 79.0781 136.727 79.8281 135.039C80.5781 133.305 81.6562 131.664 83.0625 130.117C84.4688 128.523 86.3438 126.648 88.6875 124.492C90.2812 122.852 91.8984 121.164 93.5391 119.43C95.2266 117.695 96.75 115.891 98.1094 114.016C99.5156 112.094 100.664 110.078 101.555 107.969C102.445 105.859 102.891 103.633 102.891 101.289C102.891 96.1797 101.414 92.2891 98.4609 89.6172C95.5078 86.8984 91.2891 85.5391 85.8047 85.5391C83.6016 85.5391 81.4453 85.8203 79.3359 86.3828C77.2734 86.8984 75.4219 87.7422 73.7812 88.9141C72.1875 90.0391 70.8984 91.4922 69.9141 93.2734C68.9297 95.0078 68.4375 97.0938 68.4375 99.5312H55.4297C55.4766 95.5938 56.2969 92.0547 57.8906 88.9141C59.4844 85.7734 61.6172 83.125 64.2891 80.9688C67.0078 78.7656 70.1953 77.1016 73.8516 75.9766C77.5547 74.8047 81.5391 74.2188 85.8047 74.2188C90.5391 74.2188 94.7578 74.8281 98.4609 76.0469C102.211 77.2188 105.375 78.9531 107.953 81.25C110.531 83.5469 112.5 86.3359 113.859 89.6172C115.219 92.8984 115.898 96.6484 115.898 100.867C115.898 104.242 115.312 107.43 114.141 110.43C112.969 113.383 111.469 116.195 109.641 118.867C107.812 121.492 105.75 123.953 103.453 126.25C101.203 128.547 98.9766 130.68 96.7734 132.648C95.3672 134.008 94.2656 135.297 93.4688 136.516C92.7188 137.734 92.1562 138.977 91.7812 140.242C91.4062 141.508 91.1719 142.867 91.0781 144.32C90.9844 145.727 90.9375 147.344 90.9375 149.172H77.9297ZM76.4531 171.18C76.4531 168.93 77.1094 167.055 78.4219 165.555C79.7812 164.055 81.7969 163.305 84.4688 163.305C87.1406 163.305 89.1562 164.055 90.5156 165.555C91.9219 167.055 92.625 168.93 92.625 171.18C92.625 173.336 91.9219 175.141 90.5156 176.594C89.1562 178.047 87.1406 178.773 84.4688 178.773C81.7969 178.773 79.7812 178.047 78.4219 176.594C77.1094 175.141 76.4531 173.336 76.4531 171.18Z" fill="white"/>
<path d="M203.438 123.156H140.648V111.836H203.438V123.156ZM203.438 152.336H140.648V141.086H203.438V152.336Z" fill="white"/>
</svg>
